<svg width="428" height="90" xmlns="http://www.w3.org/2000/svg">
 <!-- Created with Method Draw - http://github.com/duopixel/Method-Draw/ -->
 <g>
  <title>background</title>
  <rect fill="#ffffff" id="canvas_background" height="92" width="430" y="-1" x="-1" fill-opacity=".0"/>
  <g display="none" overflow="visible" y="0" x="0" height="100%" width="100%" id="canvasGrid">
   <rect fill="url(#gridpattern)" stroke-width="0" y="0" x="0" height="100%" width="100%"/>
  </g>
 </g>
 <g>
  <title>Layer 1</title>
  <path id="svg_1" d="m297.751757,227.724823c-0.287743,0 -0.534724,0.447661 -0.655617,1.093923c-0.048284,-0.080868 -0.101541,-0.129834 -0.158379,-0.129834c-0.17188,0 -0.314909,0.41481 -0.359116,0.977901c-0.075456,-0.089474 -0.16319,-0.143646 -0.256906,-0.143646c-0.281147,0 -0.509208,0.461477 -0.509208,1.030387c0,0.513538 0.18704,0.935714 0.430018,1.013812c-0.01089,0.05543 -0.019337,0.110322 -0.019337,0.168508c0,0.544701 0.497441,0.98895 1.110497,0.98895c0.613057,0 1.110498,-0.444249 1.110497,-0.98895c0,-0.036649 -0.007582,-0.069356 -0.01197,-0.104973c0.026852,0.020033 0.053439,0.041437 0.082873,0.041437c0.164002,0.000002 0.297422,-0.334305 0.297422,-0.745857c0,-0.411552 -0.13342,-0.745856 -0.297422,-0.745856c-0.020098,0 -0.037188,0.020826 -0.056169,0.030387c0.016598,-0.164559 0.027624,-0.33247 0.027624,-0.51105c0,-1.089401 -0.328705,-1.975138 -0.734806,-1.975138l0,-0.000001z" stroke-width="1.5" stroke="#fff" fill="#fff"/>
  <text stroke="#fff" transform="matrix(1.2771117423029636,0,0,1.2294819542282909,-42.016029411868374,-11.699924500872479) " font-weight="bold" xml:space="preserve" text-anchor="start" font-family="Euphoria, sans-serif" font-size="35" id="svg_3" y="61.266476" x="135.387748" stroke-opacity="null" stroke-width="0" fill="#fff">TCT-CLOUD</text>
  <path stroke="#fff" id="svg_4" d="m100.608816,38.505074c0.066821,-0.698507 0.105507,-1.404179 0.105507,-2.117015c0,-12.365373 -9.84031,-22.38806 -21.980678,-22.38806c-9.421798,0 -17.436832,6.050149 -20.563364,14.539701c-2.071459,-2.31403 -5.025662,-3.793433 -8.342107,-3.793433c-6.253063,0 -11.320928,5.161791 -11.320928,11.530746c0,0.752239 0.080889,1.486567 0.218048,2.195821c-8.342107,1.400597 -14.725296,8.72597 -14.725296,17.616716c0,9.893731 7.874358,17.910448 17.584542,17.910448l55.830921,0c9.713701,0 17.584542,-8.016716 17.584542,-17.910448c0.003517,-8.779701 -6.207343,-16.051343 -14.391189,-17.584478z" fill-opacity="0.8" stroke-opacity="null" stroke-width="0" fill="#007f00"/>
 </g>
</svg>